<svg width="243px" height="267px" viewBox="0 0 243 267" version="1.1" xmlns="http://www.w3.org/2000/svg" xmlns:xlink="http://www.w3.org/1999/xlink">
    <!-- Generator: sketchtool 3.8.1 (29687) - http://www.bohemiancoding.com/sketch -->
    <title>A11C2809-4F61-40E5-A974-786BD7DDE656</title>
    <desc>Created with sketchtool.</desc>
    <defs/>
    <g id="Profile" stroke="none" stroke-width="1" fill="none" fill-rule="evenodd">
        <g id="5.7-Past-Orders---No-Order" transform="translate(-599.000000, -326.000000)">
            <g id="illy" transform="translate(600.000000, 327.000000)">
                <path d="M240.5001,120.5005 C240.5001,186.7745 186.7741,240.5005 120.5001,240.5005 C54.2261,240.5005 0.5001,186.7745 0.5001,120.5005 C0.5001,54.2265 54.2261,0.5005 120.5001,0.5005 C186.7741,0.5005 240.5001,54.2265 240.5001,120.5005" id="Fill-1" fill="#FFFFFF"/>
                <path d="M240.5,120.5005 C240.5,186.7745 186.774,240.5005 120.5,240.5005 C54.226,240.5005 0.5,186.7745 0.5,120.5005 C0.5,54.2265 54.226,0.5005 120.5,0.5005 C186.774,0.5005 240.5,54.2265 240.5,120.5005 L240.5,120.5005 Z" id="Stroke-3" stroke="#EBE1D6" stroke-width="3" stroke-linecap="round" stroke-linejoin="round" stroke-dasharray="64.63,10.772,32.315,10.772,10.772,21.543"/>
                <g id="Group-8" transform="translate(36.000000, 67.770000)">
                    <path d="M122.6631,0.0894 L122.6631,33.9534 C122.6631,41.4334 128.7281,47.4984 136.2091,47.4984 L170.0721,47.4984 L170.0721,182.9544 L156.5271,169.4084 L136.2091,189.7274 L126.0491,179.5684 L115.8901,189.7274 L102.3451,176.1814 L88.7991,189.7274 L82.0261,182.9544 L68.4811,196.5004 L54.9351,182.9544 L41.3901,196.5004 L21.0711,176.1814 L0.7531,196.5004 L0.7531,13.6354 C0.7531,6.1544 6.8181,0.0894 14.2991,0.0894 L18.6881,0.0894 L122.6631,0.0894" id="Fill-5" fill="#FEF1DD"/>
                    <path d="M122.6631,0.0894 L122.6631,33.9534 C122.6631,41.4334 128.7281,47.4984 136.2091,47.4984 L170.0721,47.4984 L170.0721,182.9544 L156.5271,169.4084 L136.2091,189.7274 L126.0491,179.5684 L115.8901,189.7274 L102.3451,176.1814 L88.7991,189.7274 L82.0261,182.9544 L68.4811,196.5004 L54.9351,182.9544 L41.3901,196.5004 L21.0711,176.1814 L0.7531,196.5004 L0.7531,13.6354 C0.7531,6.1544 6.8181,0.0894 14.2991,0.0894 L18.6881,0.0894 L122.6631,0.0894" id="Stroke-7" stroke="#FAB03C" stroke-width="3" stroke-linecap="round" stroke-linejoin="round"/>
                </g>
                <path d="M104.9184,121.8229 L71.0544,121.8229" id="Stroke-9" stroke="#FAB03C" stroke-width="3" stroke-linecap="round" stroke-linejoin="round"/>
                <path d="M132.0095,148.914 L71.0545,148.914" id="Stroke-11" stroke="#FAB03C" stroke-width="3" stroke-linecap="round" stroke-linejoin="round"/>
                <path d="M145.555,148.914 L172.646,148.914" id="Stroke-13" stroke="#FAB03C" stroke-width="3" stroke-linecap="round" stroke-linejoin="round"/>
                <path d="M71.0544,189.5507 L98.1454,189.5507" id="Stroke-15" stroke="#FAB03C" stroke-width="3" stroke-linecap="round" stroke-linejoin="round"/>
                <path d="M71.0544,169.2324 L98.1454,169.2324" id="Stroke-17" stroke="#FAB03C" stroke-width="3" stroke-linecap="round" stroke-linejoin="round"/>
                <path d="M111.6911,169.2324 L125.2371,169.2324" id="Stroke-19" stroke="#FAB03C" stroke-width="3" stroke-linecap="round" stroke-linejoin="round"/>
                <path d="M138.7822,169.2324 L159.1002,169.2324" id="Stroke-21" stroke="#FAB03C" stroke-width="3" stroke-linecap="round" stroke-linejoin="round"/>
                <path d="M71.0544,209.869 L91.3724,209.869" id="Stroke-23" stroke="#FAB03C" stroke-width="3" stroke-linecap="round" stroke-linejoin="round"/>
                <path d="M152.3278,209.869 L172.6458,209.869" id="Stroke-25" stroke="#FAB03C" stroke-width="3" stroke-linecap="round" stroke-linejoin="round"/>
                <path d="M104.9184,209.869 L138.7824,209.869" id="Stroke-27" stroke="#FAB03C" stroke-width="3" stroke-linecap="round" stroke-linejoin="round"/>
                <path d="M111.6911,189.5507 L165.8731,189.5507" id="Stroke-29" stroke="#FAB03C" stroke-width="3" stroke-linecap="round" stroke-linejoin="round"/>
                <path d="M159.1006,69.4998 L159.1006,101.5048 C159.1006,108.9848 165.1656,115.0498 172.6466,115.0498 L206.5096,115.0498 L206.5096,250.5058 L192.9646,236.9598 L172.6466,257.2788 L162.4866,247.1198 L152.3276,257.2788 L138.7826,243.7328 L125.2366,257.2788 L118.4636,250.5058 L104.9186,264.0508 L91.3726,250.5058 L77.8276,264.0508 L57.5086,243.7328 L37.1906,264.0508 L37.1906,81.1858 C37.1906,73.7058 43.2556,67.6408 50.7366,67.6408 L55.1256,67.6408 L159.1006,67.6408 L206.5096,115.0498" id="Stroke-31" stroke="#FAB03C" stroke-width="3" stroke-linecap="round" stroke-linejoin="round"/>
            </g>
        </g>
    </g>
</svg>